<?xml version="1.0" encoding="iso-8859-1"?>
<!-- Generator: Adobe Illustrator 19.0.0, SVG Export Plug-In . SVG Version: 6.00 Build 0)  -->
<svg version="1.1" id="Capa_1" xmlns="http://www.w3.org/2000/svg" xmlns:xlink="http://www.w3.org/1999/xlink" x="0px" y="0px"
	 viewBox="0 0 512 512" style="enable-background:new 0 0 512 512;" xml:space="preserve">
<path style="fill:#063E8B;" d="M30,418.994V213.006l132,51.765V367.23L30,418.994z"/>
<rect x="175" y="91" style="fill:#0A4EAF;" width="337" height="30"/>
<rect x="307" y="106" style="fill:#032E68;" width="30" height="90"/>
<rect x="307" y="91" style="fill:#063E8B;" width="205" height="30"/>
<path style="fill:#0C61C6;" d="M190,151H45c-24.813,0-45-20.187-45-45s20.187-45,45-45h145V151z"/>
<path style="fill:#0A4EAF;" d="M512,451H132V181h380V451z"/>
<path style="fill:#063E8B;" d="M512,451H307V181h205V451z"/>
<path style="fill:#0C61C6;" d="M512,371H267c-30.327,0-55-24.673-55-55s24.673-55,55-55h245V371z"/>
<rect x="307" y="261" style="fill:#0A4EAF;" width="205" height="110"/>
<g>
</g>
<g>
</g>
<g>
</g>
<g>
</g>
<g>
</g>
<g>
</g>
<g>
</g>
<g>
</g>
<g>
</g>
<g>
</g>
<g>
</g>
<g>
</g>
<g>
</g>
<g>
</g>
<g>
</g>
</svg>
