<?xml version="1.0" encoding="utf-8"?>
<!-- Generator: Adobe Illustrator 23.0.3, SVG Export Plug-In . SVG Version: 6.00 Build 0)  -->
<svg version="1.1" id="Layer_1" xmlns="http://www.w3.org/2000/svg" xmlns:xlink="http://www.w3.org/1999/xlink" x="0px" y="0px"
	 viewBox="0 0 512 512" style="enable-background:new 0 0 512 512;" xml:space="preserve">
<style type="text/css">
	.st0{fill:#00E6B2;}
	.st1{fill:#FF18A4;}
	.st2{fill:#5B25B9;}
</style>
<g>
	<circle class="st0" cx="433.7" cy="135" r="72.5"/>
	<circle class="st1" cx="193.2" cy="207.5" r="75.4"/>
	<circle class="st2" cx="223.9" cy="413" r="37.7"/>
</g>
<path d="M120,337.4c-12.5-4.4-26.2,2.1-30.6,14.6c-4.4,12.5,2.1,26.2,14.6,30.6c12.5,4.4,26.2-2.1,30.6-14.6
	c0.9-2.6,1.4-5.3,1.4-8.1v-32h24c13.3,0,24-10.7,24-24v-16c0-4.4-3.6-8-8-8h-32c-13.3,0-24,10.7-24,24V337.4z M112,368
	c-4.4,0-8-3.6-8-8s3.6-8,8-8s8,3.6,8,8S116.4,368,112,368z M136,304c0-4.4,3.6-8,8-8h24v8c0,4.4-3.6,8-8,8h-24V304z"/>
<path d="M336,304c0,22.1,17.9,40,40,40s40-17.9,40-40s-17.9-40-40-40S336,281.9,336,304z M400,304c0,13.3-10.7,24-24,24
	s-24-10.7-24-24s10.7-24,24-24S400,290.7,400,304z"/>
<circle cx="376" cy="304" r="8"/>
<path d="M256,224c30.9,0,56-25.1,56-56v-32c0-4.4-3.6-8-8-8h-32c-4.4,0-8,3.6-8,8s3.6,8,8,8h24v16h-24c-4.4,0-8,3.6-8,8s3.6,8,8,8
	h23.2c-4.4,21.6-25.5,35.6-47.2,31.2c-15.7-3.2-28-15.5-31.2-31.2H240c4.4,0,8-3.6,8-8s-3.6-8-8-8h-24v-16h24c4.4,0,8-3.6,8-8
	s-3.6-8-8-8h-24v-16h24c4.4,0,8-3.6,8-8s-3.6-8-8-8h-24V80h24c4.4,0,8-3.6,8-8s-3.6-8-8-8h-23.2c4.4-21.6,25.5-35.6,47.2-31.2
	c15.7,3.2,28,15.5,31.2,31.2H272c-4.4,0-8,3.6-8,8s3.6,8,8,8h24v16h-24c-4.4,0-8,3.6-8,8s3.6,8,8,8h32c4.4,0,8-3.6,8-8V72
	c0-30.9-25.1-56-56-56s-56,25.1-56,56v96C200,198.9,225.1,224,256,224z"/>
<path d="M232,285.6V344h-40c-4.4,0-8,3.6-8,8s3.6,8,8,8h128c4.4,0,8,3.6,8,8v8H176c-4.4,0-8,3.6-8,8s3.6,8,8,8h160c4.4,0,8-3.6,8-8
	v-16c0-13.3-10.7-24-24-24h-40v-58.4c55.9-11.4,96-60.6,96-117.6v-40c0-13.3-10.7-24-24-24s-24,10.7-24,24v40c0,39.8-32.2,72-72,72
	s-72-32.2-72-72v-40c0-13.3-10.7-24-24-24s-24,10.7-24,24v40C136,225,176.1,274.2,232,285.6z M264,344h-16v-56h8c0,0,5.4,0,8,0V344z
	 M152,128c0-4.4,3.6-8,8-8s8,3.6,8,8v40c0,48.6,39.4,88,88,88s88-39.4,88-88v-40c0-4.4,3.6-8,8-8s8,3.6,8,8v40
	c0,57.4-46.6,104-104,104s-104-46.6-104-104V128z"/>
<path d="M488,416H72v-96c0-4.4-3.6-8-8-8s-8,3.6-8,8v96H24c-4.4,0-8,3.6-8,8v16c0,30.9,25.1,56,56,56h248c4.4,0,8-3.6,8-8
	s-3.6-8-8-8H72c-22.1,0-40-17.9-40-40v-8h448v8c0,22.1-17.9,40-40,40h-88c-4.4,0-8,3.6-8,8s3.6,8,8,8h88c30.9,0,56-25.1,56-56v-16
	C496,419.6,492.4,416,488,416z"/>
<circle cx="88" cy="456" r="8"/>
<circle cx="120" cy="456" r="8"/>
<circle cx="392" cy="456" r="8"/>
<circle cx="424" cy="456" r="8"/>
<path d="M192,448c-4.4,0-8,3.6-8,8s3.6,8,8,8h128c4.4,0,8-3.6,8-8s-3.6-8-8-8H192z"/>
<path d="M400,144h16c13.3,0,24,10.7,24,24v224c0,4.4,3.6,8,8,8s8-3.6,8-8V168c0-22.1-17.9-40-40-40h-16c-4.4,0-8,3.6-8,8
	S395.6,144,400,144z"/>
<path d="M64,296c4.4,0,8-3.6,8-8V168c0-13.3,10.7-24,24-24h16c4.4,0,8-3.6,8-8s-3.6-8-8-8H96c-22.1,0-40,17.9-40,40v120
	C56,292.4,59.6,296,64,296z"/>
</svg>
