<?xml version="1.0" encoding="iso-8859-1"?>
<!-- Generator: Adobe Illustrator 19.0.0, SVG Export Plug-In . SVG Version: 6.00 Build 0)  -->
<svg version="1.1" id="Capa_1" xmlns="http://www.w3.org/2000/svg" xmlns:xlink="http://www.w3.org/1999/xlink" x="0px" y="0px"
	 viewBox="0 0 512 512" style="enable-background:new 0 0 512 512;" xml:space="preserve">
<path style="fill:#7D8AFF;" d="M381,437H131V75h250V437z"/>
<path style="fill:#6E76E5;" d="M381,437H256V75h125V437z"/>
<g>
	<path style="fill:#ACE3FC;" d="M428.568,312.568l-21.213-21.213c9.444-9.444,14.645-22,14.645-35.355s-5.201-25.911-14.645-35.355
		l21.213-21.213C443.679,214.541,452,234.631,452,256S443.679,297.459,428.568,312.568z"/>
	<path style="fill:#ACE3FC;" d="M470.995,354.995l-21.213-21.213C470.558,313.006,482,285.382,482,256s-11.442-57.006-32.218-77.782
		l21.213-21.213C497.438,183.447,512,218.604,512,256S497.438,328.553,470.995,354.995z"/>
</g>
<g>
	<path style="fill:#CCEFFF;" d="M83.432,312.568C68.321,297.459,60,277.369,60,256s8.321-41.459,23.432-56.568l21.213,21.213
		C95.201,230.089,90,242.645,90,256c0,13.355,5.201,25.911,14.645,35.355L83.432,312.568z"/>
	<path style="fill:#CCEFFF;" d="M41.005,354.995C14.563,328.553,0,293.396,0,256s14.563-72.553,41.005-98.995l21.213,21.213
		C41.442,198.994,30,226.618,30,256s11.442,57.006,32.218,77.782L41.005,354.995z"/>
</g>
<g>
	<path style="fill:#6E76E5;" d="M256,215c-24.813,0-45-20.187-45-45s20.187-45,45-45s45,20.187,45,45S280.813,215,256,215z M256,155
		c-8.271,0-15,6.729-15,15s6.729,15,15,15s15-6.729,15-15S264.271,155,256,155z"/>
	<path style="fill:#6E76E5;" d="M256,385c-33.084,0-60-26.916-60-60s26.916-60,60-60s60,26.916,60,60S289.084,385,256,385z M256,295
		c-16.542,0-30,13.458-30,30s13.458,30,30,30s30-13.458,30-30S272.542,295,256,295z"/>
</g>
<g>
	<path style="fill:#5E67BF;" d="M256,155c8.271,0,15,6.729,15,15s-6.729,15-15,15v30c24.813,0,45-20.187,45-45s-20.187-45-45-45V155
		z"/>
	<path style="fill:#5E67BF;" d="M256,265v30c16.542,0,30,13.458,30,30s-13.458,30-30,30v30c33.084,0,60-26.916,60-60
		S289.084,265,256,265z"/>
</g>
<g>
</g>
<g>
</g>
<g>
</g>
<g>
</g>
<g>
</g>
<g>
</g>
<g>
</g>
<g>
</g>
<g>
</g>
<g>
</g>
<g>
</g>
<g>
</g>
<g>
</g>
<g>
</g>
<g>
</g>
</svg>
